<svg width="32" height="32" viewBox="0 0 32 32" fill="none" xmlns="http://www.w3.org/2000/svg">
<path d="M0 4C0 1.79086 1.79086 0 4 0H23.517C25.7261 0 27.517 1.79086 27.517 4V24.2769C27.517 26.486 25.7261 28.2769 23.517 28.2769H4C1.79087 28.2769 0 26.486 0 24.2769V4Z" fill="#5AB677"/>
<rect width="8.7186" height="17.4372" rx="2" transform="matrix(0.697412 -0.716671 0.697412 0.716671 13.7585 19.5032)" fill="#5AB677"/>
<path fill-rule="evenodd" clip-rule="evenodd" d="M20.6378 12.1726C20.6378 12.1726 20.6378 12.1726 20.6378 12.1726L15.1618 6.87118C14.3875 6.12159 13.1586 6.12025 12.3827 6.86814L6.87952 12.1726C6.8795 12.1726 6.87948 12.1726 6.87947 12.1726C6.87943 12.1726 6.87939 12.1727 6.87939 12.1727V12.1727V19.2129C6.87939 20.3175 7.77483 21.2129 8.8794 21.2129H18.6379C19.7425 21.2129 20.6379 20.3175 20.6379 19.2129V12.1727V12.1727C20.6379 12.1727 20.6379 12.1726 20.6378 12.1726Z" fill="white"/>
</svg>
