<svg width="236" height="48" viewBox="0 0 236 48" fill="none" xmlns="http://www.w3.org/2000/svg">
<g clip-path="url(#clip0_161_8950)">
<path fill-rule="evenodd" clip-rule="evenodd" d="M44.7156 22.4658H36.3772V34.5904H44.7156V22.4658ZM43.0478 23.5679H41.3801V34.5902H43.0478V23.5679Z" fill="#233F8A"/>
<path fill-rule="evenodd" clip-rule="evenodd" d="M36.3777 13.8057H28.0393V39.7868H36.3777V13.8057ZM34.7106 15.4293H31.3752V39.7866H34.7106V15.4293Z" fill="#233F8A"/>
<path fill-rule="evenodd" clip-rule="evenodd" d="M28.0392 3.41309H14.6978V41.5188H21.3689V5.14526H26.3719V41.5188H28.0392V3.41309Z" fill="#233F8A"/>
<path fill-rule="evenodd" clip-rule="evenodd" d="M58.6757 19.1581C55.1323 23.0127 50.5803 26.9016 45.3077 30.4059C29.9719 40.5985 14.3464 43.6784 10.4073 37.285C7.89054 33.2002 10.7531 26.2366 17.1481 19.082C6.77892 28.1327 1.47953 38.4172 4.98002 44.0987C9.2411 51.0147 24.9281 48.491 40.0179 38.4619C48.8472 32.5936 55.5158 25.456 58.6757 19.1581Z" fill="#233F8A"/>
<path d="M58.6757 19.1581L58.8098 19.2254L58.5653 19.0566L58.6757 19.1581ZM45.3077 30.4059L45.3908 30.5308L45.3077 30.4059ZM10.4073 37.285L10.535 37.2063L10.4073 37.285ZM17.1481 19.082L17.26 19.182L17.0495 18.969L17.1481 19.082ZM4.98002 44.0987L5.10772 44.02L4.98002 44.0987ZM40.0179 38.4619L40.1009 38.5868L40.0179 38.4619ZM58.5653 19.0566C55.0307 22.9015 50.4882 26.7827 45.2247 30.281L45.3908 30.5308C50.6724 27.0205 55.2338 23.1239 58.7861 19.2597L58.5653 19.0566ZM45.2247 30.281C37.5688 35.3693 29.8466 38.6779 23.5547 39.918C20.4084 40.5382 17.6278 40.6395 15.3951 40.1936C13.1635 39.7479 11.4914 38.7586 10.535 37.2063L10.2796 37.3636C11.2927 39.008 13.051 40.0313 15.3363 40.4878C17.6205 40.944 20.4434 40.8371 23.6128 40.2124C29.9523 38.9628 37.7108 35.6351 45.3908 30.5308L45.2247 30.281ZM10.535 37.2063C9.31201 35.2213 9.38296 32.5144 10.5759 29.3882C11.7677 26.2651 14.0698 22.7511 17.26 19.182L17.0363 18.9821C13.8314 22.5676 11.5048 26.1126 10.2956 29.2812C9.08776 32.4465 8.98582 35.2638 10.2796 37.3636L10.535 37.2063ZM5.10772 44.02C3.39864 41.2461 3.82172 37.3173 5.99737 32.9203C8.16964 28.5303 12.0723 23.7115 17.2468 19.195L17.0495 18.969C11.8547 23.5032 7.9231 28.3521 5.72849 32.7873C3.53727 37.2157 3.0609 41.2699 4.85231 44.1774L5.10772 44.02ZM39.9348 38.3369C32.4033 43.3426 24.729 46.4707 18.4144 47.4866C12.0844 48.5049 7.1866 47.3941 5.10772 44.02L4.85231 44.1774C7.03452 47.7192 12.1108 48.8046 18.462 47.7828C24.8285 46.7585 32.5427 43.6102 40.1009 38.5868L39.9348 38.3369ZM58.5416 19.0909C55.3968 25.3587 48.7497 32.4783 39.9348 38.3369L40.1009 38.5868C48.9448 32.7089 55.6348 25.5533 58.8098 19.2254L58.5416 19.0909Z" fill="white"/>
<mask id="path-6-inside-1_161_8950" fill="white">
<path fill-rule="evenodd" clip-rule="evenodd" d="M24.7467 35.3185C27.6538 33.6837 30.7523 31.4036 33.7427 28.5929C42.4391 20.4191 46.9282 10.854 43.7693 7.22847C41.7515 4.91261 37.1011 5.5805 31.7382 8.4956C38.9091 3.33635 45.9593 1.65795 48.766 4.87925C52.1831 8.80104 48.0165 18.5001 39.4596 26.5427C34.4521 31.2492 29.0509 34.3455 24.7467 35.3185Z"/>
</mask>
<path fill-rule="evenodd" clip-rule="evenodd" d="M24.7467 35.3185C27.6538 33.6837 30.7523 31.4036 33.7427 28.5929C42.4391 20.4191 46.9282 10.854 43.7693 7.22847C41.7515 4.91261 37.1011 5.5805 31.7382 8.4956C38.9091 3.33635 45.9593 1.65795 48.766 4.87925C52.1831 8.80104 48.0165 18.5001 39.4596 26.5427C34.4521 31.2492 29.0509 34.3455 24.7467 35.3185Z" fill="#233F8A"/>
<path d="M24.7467 35.3185L24.8143 35.6117L24.5991 35.056L24.7467 35.3185ZM33.7427 28.5929L33.5373 28.3729L33.7427 28.5929ZM43.7693 7.22847L43.9942 7.03142L43.7693 7.22847ZM31.7382 8.4956L31.882 8.76009L31.5627 8.25096L31.7382 8.4956ZM48.766 4.87925L48.5412 5.0763L48.766 4.87925ZM39.4596 26.5427L39.2542 26.3228L39.4596 26.5427ZM24.5991 35.056C27.4831 33.4343 30.5624 31.169 33.5373 28.3729L33.9481 28.8129C30.9422 31.6381 27.8246 33.9331 24.8943 35.5809L24.5991 35.056ZM33.5373 28.3729C37.8648 24.3055 41.1357 19.9004 42.9307 16.0756C43.8286 14.1625 44.3507 12.4083 44.4596 10.9228C44.5685 9.43716 44.2632 8.2505 43.5444 7.42552L43.9942 7.03142C44.8548 8.01918 45.1729 9.38773 45.0569 10.9707C44.9408 12.5537 44.3894 14.3815 43.4728 16.3345C41.6389 20.2422 38.3171 24.7065 33.9481 28.8129L33.5373 28.3729ZM43.5444 7.42552C42.6293 6.37521 41.0839 5.96241 39.0444 6.19899C37.0102 6.43496 34.5443 7.31299 31.882 8.76009L31.5943 8.23112C34.295 6.76312 36.8358 5.84965 38.9719 5.60186C41.1028 5.35469 42.8915 5.76587 43.9942 7.03142L43.5444 7.42552ZM48.5412 5.0763C47.2475 3.59158 44.9273 3.18462 41.9545 3.83833C38.996 4.4889 35.4777 6.17601 31.9136 8.74025L31.5627 8.25096C35.1696 5.65594 38.7618 3.92423 41.8229 3.25111C44.8696 2.58113 47.4778 2.94561 48.9909 4.6822L48.5412 5.0763ZM39.2542 26.3228C43.5096 22.3231 46.6633 17.9202 48.328 14.0452C49.1605 12.1073 49.6151 10.3143 49.6575 8.77748C49.6999 7.24184 49.3311 5.98294 48.5412 5.0763L48.9909 4.6822C49.9095 5.73645 50.3013 7.16061 50.2561 8.79788C50.211 10.434 49.7298 12.3037 48.8782 14.2861C47.1746 18.2518 43.9665 22.7197 39.665 26.7627L39.2542 26.3228ZM24.6792 35.0252C28.9152 34.0677 34.2708 31.0066 39.2542 26.3228L39.665 26.7627C34.6334 31.4919 29.1865 34.6233 24.8143 35.6117L24.6792 35.0252Z" fill="white" mask="url(#path-6-inside-1_161_8950)"/>
<path d="M64.9968 31.6329V10.5H77.939V14.0606H68.4807V18.9042H73.433C75.3045 18.9042 76.7729 19.4904 77.8382 20.6628C78.9035 21.8257 79.4362 23.3681 79.4362 25.2902C79.4362 26.9624 78.9803 28.4375 78.0685 29.7157C77.1664 30.9939 75.6212 31.6329 73.433 31.6329H64.9968ZM68.4807 22.4792V28.0579H72.1661C73.1259 28.0579 73.8169 27.9955 74.2392 27.8705C74.671 27.736 75.0453 27.4333 75.3621 26.9624C75.6884 26.4915 75.8515 25.9437 75.8515 25.319C75.8515 23.4258 74.671 22.4792 72.3101 22.4792H68.4807Z" fill="#233F8A"/>
<path d="M82.3031 31.6329V16.3382H85.4846V25.9389L90.5809 16.3382H93.8632V31.6329H90.6673V21.8305L85.4846 31.6329H82.3031Z" fill="#233F8A"/>
<path d="M101.337 25.3478H100.718V22.7242C102.273 22.7242 103.05 22.0515 103.05 20.7061C103.05 20.1583 102.896 19.697 102.589 19.3222C102.282 18.9474 101.865 18.76 101.337 18.76C100.32 18.76 99.6142 19.4183 99.2207 20.7349L96.3846 19.9997C97.0468 17.3281 98.7072 15.9923 101.366 15.9923C102.824 15.9923 103.986 16.4007 104.85 17.2176C105.713 18.0344 106.145 19.1012 106.145 20.4178C106.145 21.8593 105.401 23.0077 103.914 23.8631C105.757 24.5358 106.678 25.7851 106.678 27.6111C106.678 28.8796 106.198 29.9271 105.238 30.7536C104.288 31.5801 102.997 31.9933 101.366 31.9933C98.4385 31.9933 96.6101 30.5566 95.8807 27.6831L98.9183 27.0344C99.4174 28.524 100.224 29.2688 101.337 29.2688C101.913 29.2688 102.407 29.0814 102.82 28.7066C103.232 28.3222 103.439 27.8417 103.439 27.2651C103.439 26.6885 103.242 26.2272 102.848 25.8812C102.455 25.5256 101.951 25.3478 101.337 25.3478Z" fill="#233F8A"/>
<path d="M109.314 31.6329V16.3382H112.64V21.917H117.391V16.3382H120.716V31.6329H117.391V25.2037H112.64V31.6329H109.314Z" fill="#233F8A"/>
<path d="M131.415 26.7605L134.711 27.4381C134.27 28.9757 133.584 30.1193 132.653 30.8689C131.722 31.6089 130.589 31.9789 129.255 31.9789C127.403 31.9789 125.973 31.3591 124.965 30.1193C123.775 28.6778 123.18 26.6596 123.18 24.0649C123.18 21.5085 123.78 19.4616 124.98 17.9239C125.997 16.6265 127.312 15.9778 128.924 15.9778C130.719 15.9778 132.125 16.641 133.142 17.9672C134.313 19.4856 134.898 21.7248 134.898 24.6847L134.884 25.146H126.578C126.597 26.3569 126.865 27.2939 127.384 27.957C127.912 28.6201 128.545 28.9517 129.284 28.9517C130.349 28.9517 131.06 28.2213 131.415 26.7605ZM131.602 22.6666C131.573 21.4749 131.319 20.5812 130.839 19.9853C130.359 19.3799 129.788 19.0771 129.126 19.0771C128.425 19.0771 127.835 19.3895 127.355 20.0141C126.865 20.6484 126.625 21.5326 126.635 22.6666H131.602Z" fill="#233F8A"/>
<path d="M148.606 20.8502L145.338 21.571C145.098 19.9661 144.344 19.1636 143.078 19.1636C142.262 19.1636 141.604 19.5096 141.105 20.2015C140.606 20.8935 140.357 22.0611 140.357 23.7045C140.357 25.5208 140.606 26.8038 141.105 27.5534C141.604 28.303 142.271 28.6778 143.106 28.6778C143.73 28.6778 144.244 28.4664 144.647 28.0435C145.05 27.6111 145.338 26.8518 145.511 25.7659L148.778 26.4434C148.107 30.1337 146.173 31.9789 142.977 31.9789C140.933 31.9789 139.416 31.2005 138.428 29.6436C137.439 28.0868 136.945 26.2128 136.945 24.0216C136.945 21.398 137.501 19.4039 138.615 18.0392C139.738 16.665 141.206 15.9778 143.02 15.9778C144.488 15.9778 145.683 16.3671 146.605 17.1455C147.536 17.9239 148.203 19.1588 148.606 20.8502Z" fill="#233F8A"/>
<path d="M150.103 31.6329L156.754 10.5H159.216L166.298 31.6329H163.678L161.663 25.2325H154.436L152.536 31.6329H150.103ZM155.098 22.9549H160.957L159.158 17.1022C158.601 15.3051 158.193 13.8444 157.934 12.72C157.714 14.075 157.402 15.4204 156.999 16.7563L155.098 22.9549Z" fill="#233F8A"/>
<path d="M167.899 37.5V16.3238H169.842V18.3131C170.322 17.4867 170.855 16.8908 171.44 16.5256C172.025 16.1604 172.697 15.9778 173.455 15.9778C174.444 15.9778 175.337 16.271 176.133 16.8572C176.93 17.4434 177.568 18.3372 178.048 19.5384C178.537 20.7301 178.782 22.1668 178.782 23.8486C178.782 26.453 178.235 28.4616 177.141 29.8743C176.056 31.2774 174.78 31.9789 173.311 31.9789C172.659 31.9789 172.049 31.8107 171.483 31.4744C170.917 31.138 170.427 30.6623 170.015 30.0472V37.5H167.899ZM169.813 24.0649C169.813 26.0446 170.144 27.5053 170.807 28.4471C171.469 29.3793 172.27 29.8454 173.211 29.8454C174.113 29.8454 174.905 29.3601 175.586 28.3895C176.267 27.4188 176.608 25.9196 176.608 23.8919C176.608 21.893 176.277 20.413 175.615 19.4519C174.953 18.4909 174.146 18.0104 173.196 18.0104C172.342 18.0104 171.565 18.5294 170.864 19.5673C170.164 20.5956 169.813 22.0948 169.813 24.0649Z" fill="#233F8A"/>
<path d="M190.013 26.7029L192.201 27.0344C191.837 28.6682 191.174 29.9031 190.215 30.7392C189.264 31.5657 188.084 31.9789 186.673 31.9789C184.898 31.9789 183.458 31.3062 182.354 29.9608C181.26 28.6057 180.713 26.6548 180.713 24.1081C180.713 21.4653 181.265 19.4519 182.369 18.0681C183.482 16.6746 184.888 15.9778 186.587 15.9778C188.209 15.9778 189.562 16.6602 190.647 18.0248C191.731 19.3895 192.273 21.3644 192.273 23.9495L192.259 24.6415H182.901C182.988 26.3617 183.386 27.6591 184.096 28.5336C184.806 29.4082 185.67 29.8454 186.688 29.8454C188.281 29.8454 189.389 28.7979 190.013 26.7029ZM183.031 22.508H190.027C189.932 21.1818 189.648 20.1919 189.178 19.5384C188.497 18.587 187.628 18.1113 186.572 18.1113C185.622 18.1113 184.811 18.5101 184.139 19.3078C183.468 20.0958 183.098 21.1626 183.031 22.508Z" fill="#233F8A"/>
<path d="M195.011 16.3238H197.127V22.6954H203.029V16.3238H205.146V31.6329H203.029V24.8433H197.127V31.6329H195.011V16.3238Z" fill="#233F8A"/>
<path d="M210.143 16.3238H218.867V29.4995H220.22V35.972H218.478V31.6329H208.617V35.972H206.861V29.4995H207.984C209.452 27.0585 210.172 22.6666 210.143 16.3238ZM211.899 18.4717C211.746 23.4498 211.117 27.1257 210.013 29.4995H216.751V18.4717H211.899Z" fill="#233F8A"/>
<path d="M230.789 29.7445C230.079 30.4845 229.34 31.0419 228.572 31.4167C227.804 31.7915 227.008 31.9789 226.182 31.9789C224.877 31.9789 223.836 31.5849 223.058 30.7968C222.281 30.0088 221.892 28.9469 221.892 27.6111C221.892 26.7269 222.075 25.9437 222.439 25.2613C222.804 24.579 223.303 24.0456 223.937 23.6612C224.57 23.2768 225.53 22.9933 226.816 22.8107C228.543 22.5609 229.81 22.2629 230.616 21.917L230.631 21.2539C230.631 20.2064 230.444 19.4712 230.069 19.0483C229.542 18.4333 228.731 18.1257 227.636 18.1257C226.648 18.1257 225.909 18.3324 225.419 18.7456C224.93 19.1492 224.57 19.9132 224.34 21.0376L222.252 20.6917C222.55 19.0483 223.15 17.8518 224.052 17.1022C224.964 16.3526 226.264 15.9778 227.953 15.9778C229.268 15.9778 230.3 16.2277 231.048 16.7274C231.797 17.2176 232.267 17.8278 232.459 18.5582C232.661 19.2886 232.762 20.3553 232.762 21.7584V25.2181C232.762 27.6399 232.805 29.1679 232.891 29.8022C232.987 30.4269 233.169 31.0371 233.438 31.6329H231.221C231 31.1044 230.856 30.4749 230.789 29.7445ZM230.616 23.9495C229.839 24.334 228.683 24.6607 227.147 24.9298C226.254 25.0836 225.631 25.2613 225.276 25.4632C224.92 25.6554 224.642 25.9341 224.441 26.2993C224.249 26.6548 224.153 27.0681 224.153 27.539C224.153 28.2694 224.378 28.8556 224.829 29.2976C225.28 29.7301 225.904 29.9463 226.701 29.9463C227.459 29.9463 228.145 29.7493 228.759 29.3553C229.383 28.9613 229.849 28.4375 230.156 27.784C230.463 27.1209 230.616 26.1599 230.616 24.901V23.9495Z" fill="#233F8A"/>
</g>
<defs>
<clipPath id="clip0_161_8950">
<rect width="236" height="48" fill="white"/>
</clipPath>
</defs>
</svg>
