<svg width="32" height="32" viewBox="0 0 32 32" fill="none" xmlns="http://www.w3.org/2000/svg">
<g clip-path="url(#clip0_161_9003)">
<path fill-rule="evenodd" clip-rule="evenodd" d="M23.8428 15.8662H18.9712V22.6865H21.8942V16.4865H22.8685V22.6865H23.8428V15.8662Z" fill="#F99F1B"/>
<path fill-rule="evenodd" clip-rule="evenodd" d="M18.9714 10.9944H14.0999V25.6093H18.9714V10.9944ZM17.997 11.9077H16.0483V25.6092H17.997V11.9077Z" fill="#F99F1B"/>
<path fill-rule="evenodd" clip-rule="evenodd" d="M14.0999 5.14917H6.30542V26.5843H10.2027V6.12353H13.1256V26.5843H14.0999V5.14917Z" fill="#F99F1B"/>
<path fill-rule="evenodd" clip-rule="evenodd" d="M31.9995 14.0046C29.9293 16.173 27.2698 18.3607 24.1891 20.3321C15.2294 26.0657 6.10051 27.7982 3.79913 24.2017C2.32891 21.9042 4.00084 17.9876 7.7363 13.9634C1.67905 19.0543 -1.4165 24.839 0.62847 28.0347C3.11794 31.9251 12.2828 30.5055 21.0987 24.8639C26.2574 21.5627 30.1535 17.5474 31.9995 14.0046Z" fill="#F99F1B"/>
<path d="M31.9995 14.0046L32.1326 14.0739L31.8911 13.901L31.9995 14.0046ZM24.1891 20.3321L24.27 20.4585L24.1891 20.3321ZM3.79913 24.2017L3.67279 24.2826L3.79913 24.2017ZM7.7363 13.9634L7.84624 14.0654L7.63979 13.8485L7.7363 13.9634ZM0.62847 28.0347L0.502124 28.1156L0.62847 28.0347ZM21.0987 24.8639L21.0179 24.7376L21.0987 24.8639ZM31.8911 13.901C29.8299 16.0599 27.1799 18.2402 24.1083 20.2058L24.27 20.4585C27.3596 18.4813 30.0287 16.2861 32.108 14.1082L31.8911 13.901ZM24.1083 20.2058C19.6404 23.0649 15.1361 24.9224 11.4693 25.6183C9.63546 25.9663 8.01894 26.0223 6.72433 25.7733C5.43017 25.5245 4.47153 24.9742 3.92548 24.1209L3.67279 24.2826C4.27742 25.2275 5.32291 25.8093 6.66767 26.0679C8.01198 26.3265 9.66918 26.2653 11.5252 25.913C15.2382 25.2084 19.7781 23.3329 24.27 20.4585L24.1083 20.2058ZM3.92548 24.1209C3.22795 23.0309 3.26189 21.5345 3.95503 19.7853C4.64697 18.0392 5.98594 16.0695 7.84624 14.0654L7.62637 13.8613C5.7512 15.8814 4.38647 17.8822 3.67613 19.6748C2.967 21.4643 2.90009 23.0751 3.67279 24.2826L3.92548 24.1209ZM0.754816 27.9539C-0.223841 26.4245 0.01023 24.2444 1.27747 21.7783C2.54116 19.3191 4.81433 16.6151 7.83281 14.0782L7.63979 13.8485C4.60102 16.4025 2.29778 19.1364 1.01064 21.6412C-0.272971 24.1391 -0.564188 26.4492 0.502124 28.1156L0.754816 27.9539ZM21.0179 24.7376C16.6232 27.5498 12.1475 29.3056 8.46821 29.8756C6.62832 30.1606 4.99478 30.1479 3.67272 29.8281C2.35166 29.5085 1.35068 28.8851 0.754816 27.9539L0.502124 28.1156C1.151 29.1296 2.22917 29.7876 3.60218 30.1197C4.97419 30.4516 6.64963 30.4608 8.51413 30.172C12.2436 29.5943 16.7583 27.8196 21.1796 24.9903L21.0179 24.7376ZM31.8665 13.9353C30.0363 17.4478 26.1624 21.4455 21.0179 24.7376L21.1796 24.9903C26.3525 21.68 30.2708 17.6471 32.1326 14.0739L31.8665 13.9353Z" fill="#F99F1B"/>
<mask id="path-6-inside-1_161_9003" fill="white">
<path fill-rule="evenodd" clip-rule="evenodd" d="M12.1782 23.0954C13.8762 22.1759 15.686 20.8935 17.4326 19.3129C22.5133 14.715 25.136 9.33443 23.2904 7.29502C22.1109 5.99159 19.3917 6.36842 16.2563 8.01051C20.4472 5.10602 24.5685 4.16064 26.2088 5.97329C28.2052 8.17937 25.7709 13.6353 20.7717 18.1594C17.847 20.8061 14.6924 22.5476 12.1782 23.0954Z"/>
</mask>
<path fill-rule="evenodd" clip-rule="evenodd" d="M12.1782 23.0954C13.8762 22.1759 15.686 20.8935 17.4326 19.3129C22.5133 14.715 25.136 9.33443 23.2904 7.29502C22.1109 5.99159 19.3917 6.36842 16.2563 8.01051C20.4472 5.10602 24.5685 4.16064 26.2088 5.97329C28.2052 8.17937 25.7709 13.6353 20.7717 18.1594C17.847 20.8061 14.6924 22.5476 12.1782 23.0954Z" fill="#F99F1B"/>
<path d="M12.1782 23.0954L12.2421 23.3885L12.0354 22.8316L12.1782 23.0954ZM17.4326 19.3129L17.6339 19.5353L17.4326 19.3129ZM23.2904 7.29502L23.068 7.49632L23.2904 7.29502ZM16.2563 8.01051L16.3955 8.27627L16.0854 7.76394L16.2563 8.01051ZM26.2088 5.97329L25.9864 6.17458L26.2088 5.97329ZM20.7717 18.1594L20.973 18.3818L20.7717 18.1594ZM12.0354 22.8316C13.7102 21.9246 15.5006 20.6567 17.2313 19.0905L17.6339 19.5353C15.8714 21.1304 14.0423 22.4272 12.3211 23.3592L12.0354 22.8316ZM17.2313 19.0905C19.7505 16.8107 21.6497 14.3457 22.6892 12.2131C23.2093 11.146 23.5072 10.1764 23.5691 9.36383C23.6309 8.55215 23.4564 7.92559 23.068 7.49632L23.5129 7.09373C24.0472 7.68416 24.237 8.49495 24.1673 9.40939C24.0978 10.3229 23.7685 11.3682 23.2285 12.476C22.1479 14.693 20.1954 17.2173 17.6339 19.5353L17.2313 19.0905ZM23.068 7.49632C22.5718 6.94806 21.7162 6.71462 20.5402 6.84633C19.3707 6.97731 17.9438 7.46536 16.3955 8.27627L16.1171 7.74475C17.7042 6.91357 19.2046 6.39216 20.4734 6.25006C21.7357 6.10869 22.8295 6.33856 23.5129 7.09373L23.068 7.49632ZM25.9864 6.17458C25.2753 5.38887 23.9754 5.15105 22.2512 5.51645C20.5422 5.87864 18.5009 6.81995 16.4272 8.25709L16.0854 7.76394C18.2027 6.29659 20.3174 5.31295 22.1268 4.92949C23.9211 4.54924 25.5019 4.74505 26.4312 5.77199L25.9864 6.17458ZM20.5704 17.937C23.0465 15.6962 24.8763 13.2338 25.8396 11.0748C26.3214 9.99496 26.5805 9.00431 26.6046 8.16326C26.6287 7.32428 26.4194 6.65318 25.9864 6.17458L26.4312 5.77199C26.9963 6.39644 27.2315 7.23461 27.2044 8.18045C27.1773 9.12422 26.8897 10.194 26.3875 11.3193C25.383 13.5709 23.4961 16.0985 20.973 18.3818L20.5704 17.937ZM12.1143 22.8023C14.5618 22.269 17.6707 20.561 20.5704 17.937L20.973 18.3818C18.0233 21.0512 14.8231 22.8261 12.2421 23.3885L12.1143 22.8023Z" fill="#F99F1B" mask="url(#path-6-inside-1_161_9003)"/>
</g>
<defs>
<clipPath id="clip0_161_9003">
<rect width="32" height="32" fill="white"/>
</clipPath>
</defs>
</svg>
