<svg version="1.1" xmlns="http://www.w3.org/2000/svg" xmlns:xlink="http://www.w3.org/1999/xlink">
    <symbol id="location" viewBox="0 0 20 20">
        <path d="M9.99999 1.66663C6.32415 1.66663 3.33332 4.65746 3.33332 8.32913C3.30915 13.7 9.74665 18.1533 9.99999 18.3333C9.99999 18.3333 16.6908 13.7 16.6667 8.33329C16.6667 4.65746 13.6758 1.66663 9.99999 1.66663ZM9.99999 11.6666C8.15832 11.6666 6.66665 10.175 6.66665 8.33329C6.66665 6.49163 8.15832 4.99996 9.99999 4.99996C11.8417 4.99996 13.3333 6.49163 13.3333 8.33329C13.3333 10.175 11.8417 11.6666 9.99999 11.6666Z"/>
    </symbol>

    <symbol id="user" viewBox="0 0 20 20">
        <path d="M10.0001 1.66663C5.48258 1.66663 1.66675 5.48246 1.66675 9.99996C1.66675 14.5175 5.48258 18.3333 10.0001 18.3333C14.5176 18.3333 18.3334 14.5175 18.3334 9.99996C18.3334 5.48246 14.5176 1.66663 10.0001 1.66663ZM10.0001 5.83329C11.4392 5.83329 12.5001 6.89329 12.5001 8.33329C12.5001 9.77329 11.4392 10.8333 10.0001 10.8333C8.56175 10.8333 7.50008 9.77329 7.50008 8.33329C7.50008 6.89329 8.56175 5.83329 10.0001 5.83329ZM5.74508 13.9766C6.49258 12.8766 7.73925 12.1433 9.16675 12.1433H10.8334C12.2617 12.1433 13.5076 12.8766 14.2551 13.9766C13.1901 15.1166 11.6792 15.8333 10.0001 15.8333C8.32091 15.8333 6.81008 15.1166 5.74508 13.9766Z"/>
    </symbol>

    <symbol id="heart" viewBox="0 0 24 24">
        <path d="M20.205 4.79099C19.6536 4.2357 18.9979 3.79488 18.2756 3.49387C17.5532 3.19286 16.7785 3.03759 15.996 3.03699C14.5158 3.03723 13.0897 3.59326 12 4.59499C10.9104 3.59309 9.48419 3.03703 8.00398 3.03699C7.22052 3.0378 6.44495 3.19355 5.72192 3.49526C4.99888 3.79696 4.34265 4.23868 3.79098 4.79499C1.43798 7.15799 1.43898 10.854 3.79298 13.207L12 21.414L20.207 13.207C22.561 10.854 22.562 7.15799 20.205 4.79099Z"/>
    </symbol>

    <symbol id="rate" viewBox="0 0 24 24">
        <path d="M6 21H3C2.73478 21 2.48043 20.8946 2.29289 20.7071C2.10536 20.5196 2 20.2652 2 20V12C2 11.7348 2.10536 11.4804 2.29289 11.2929C2.48043 11.1054 2.73478 11 3 11H6C6.26522 11 6.51957 11.1054 6.70711 11.2929C6.89464 11.4804 7 11.7348 7 12V20C7 20.2652 6.89464 20.5196 6.70711 20.7071C6.51957 20.8946 6.26522 21 6 21ZM13 21H10C9.73478 21 9.48043 20.8946 9.29289 20.7071C9.10536 20.5196 9 20.2652 9 20V3C9 2.73478 9.10536 2.48043 9.29289 2.29289C9.48043 2.10536 9.73478 2 10 2H13C13.2652 2 13.5196 2.10536 13.7071 2.29289C13.8946 2.48043 14 2.73478 14 3V20C14 20.2652 13.8946 20.5196 13.7071 20.7071C13.5196 20.8946 13.2652 21 13 21ZM20 21H17C16.7348 21 16.4804 20.8946 16.2929 20.7071C16.1054 20.5196 16 20.2652 16 20V9C16 8.73478 16.1054 8.48043 16.2929 8.29289C16.4804 8.10536 16.7348 8 17 8H20C20.2652 8 20.5196 8.10536 20.7071 8.29289C20.8946 8.48043 21 8.73478 21 9V20C21 20.2652 20.8946 20.5196 20.7071 20.7071C20.5196 20.8946 20.2652 21 20 21Z"/>
    </symbol>

    <symbol id="rise" viewBox="0 0 24 26">
        <rect y="0.747833" width="24" height="24.8348" rx="12" fill="#FFB529" fill-opacity="0.12"/>
        <path d="M16.4899 12.6488C16.4714 12.5562 16.4268 12.4707 16.3615 12.4024C16.2961 12.3342 16.2127 12.2859 16.1209 12.2633L12.6909 11.4053L13.9594 8.44483C14.0036 8.3421 14.012 8.2275 13.9832 8.11942C13.9545 8.01134 13.8903 7.91605 13.8009 7.84883C13.7117 7.78118 13.6023 7.74557 13.4903 7.74774C13.3784 7.74992 13.2704 7.78976 13.1839 7.86083L7.6839 12.3608C7.61216 12.4195 7.55815 12.497 7.52789 12.5846C7.49763 12.6722 7.49231 12.7665 7.51254 12.857C7.53277 12.9474 7.57774 13.0305 7.64243 13.0968C7.70713 13.1632 7.789 13.2103 7.8789 13.2328L11.2384 14.0733L9.5659 17.0003C9.52276 17.0764 9.50028 17.1624 9.50072 17.2498C9.50115 17.3372 9.52448 17.423 9.56837 17.4986C9.61227 17.5742 9.67521 17.637 9.75092 17.6808C9.82663 17.7245 9.91248 17.7476 9.9999 17.7478C10.1081 17.748 10.2134 17.7129 10.2999 17.6478L16.2999 13.1478C16.3755 13.0911 16.4335 13.0141 16.4671 12.9258C16.5007 12.8375 16.5086 12.7415 16.4899 12.6488Z" fill="#FFB529"/>
    </symbol>

    <symbol id="premium" viewBox="0 0 24 24">
        <rect width="24" height="24" rx="12" fill="#FFB529" fill-opacity="0.12"/>
        <path d="M18.6313 10.1193C18.5894 9.99591 18.5122 9.88746 18.4094 9.80737C18.3066 9.72729 18.1825 9.67907 18.0526 9.66867L14.2519 9.36667L12.6073 5.726C12.5549 5.60874 12.4697 5.50915 12.362 5.43924C12.2542 5.36933 12.1286 5.33209 12.0002 5.33202C11.8717 5.33195 11.746 5.36905 11.6382 5.43884C11.5304 5.50863 11.4451 5.60813 11.3926 5.72534L9.74794 9.36667L5.94727 9.66867C5.81957 9.67878 5.69749 9.72548 5.59564 9.80316C5.49378 9.88084 5.41646 9.98622 5.37293 10.1067C5.3294 10.2272 5.32149 10.3576 5.35017 10.4825C5.37884 10.6073 5.44287 10.7213 5.5346 10.8107L8.34327 13.5487L7.34994 17.85C7.31977 17.9802 7.32944 18.1165 7.37768 18.2411C7.42592 18.3657 7.51051 18.473 7.62047 18.549C7.73043 18.6249 7.86068 18.6661 7.99433 18.6671C8.12797 18.6681 8.25883 18.629 8.36994 18.5547L11.9999 16.1347L15.6299 18.5547C15.7435 18.6301 15.8774 18.6689 16.0137 18.6659C16.15 18.6629 16.2821 18.6183 16.3922 18.538C16.5023 18.4577 16.5853 18.3455 16.6298 18.2167C16.6743 18.0879 16.6783 17.9485 16.6413 17.8173L15.4219 13.5507L18.4459 10.8293C18.6439 10.6507 18.7166 10.372 18.6313 10.1193Z" fill="#FFB529"/>
    </symbol>

    <symbol id="chevron-down" viewBox="0 0 24 24">
    <path d="M16.293 9.29297L12 13.586L7.70697 9.29297L6.29297 10.707L12 16.414L17.707 10.707L16.293 9.29297Z" fill="#5E636E"/>
    </symbol>

    <symbol id="chevron-right" viewBox="0 0 24 24">
        <path d="M9.29297 7.70703L13.586 12L9.29297 16.293L10.707 17.707L16.414 12L10.707 6.29303L9.29297 7.70703Z" fill="#1D1E20"/>
    </symbol>

    <symbol id="checkbox" viewBox="0 0 24 24">
        <path d="M19 3H5C3.897 3 3 3.897 3 5V19C3 20.103 3.897 21 5 21H19C20.103 21 21 20.103 21 19V5C21 3.897 20.103 3 19 3ZM5 19V5H19L19.002 19H5Z" fill="#1D1E20"/>
    </symbol>

    <symbol id="checkbox-checked" viewBox="0 0 24 24">
        <path d="M10.933 13.519L8.70697 11.293L7.29297 12.707L11.067 16.481L16.769 9.64101L15.231 8.35901L10.933 13.519Z" fill="#233F8A"/>
        <path d="M19 3H5C3.897 3 3 3.897 3 5V19C3 20.103 3.897 21 5 21H19C20.103 21 21 20.103 21 19V5C21 3.897 20.103 3 19 3ZM5 19V5H19L19.002 19H5Z" fill="#233F8A"/>
    </symbol>

    <symbol id="cross" viewBox="0 0 16 16">
        <path d="M13.5893 0.458679L7.93196 6.11468L2.27596 0.458679L0.390625 2.34401L6.04662 8.00001L0.390625 13.656L2.27596 15.5413L7.93196 9.88535L13.5893 15.5413L15.4746 13.656L9.81863 8.00001L15.4746 2.34401L13.5893 0.458679Z" fill="white"/>
    </symbol>

    <symbol id="cross-blue" viewBox="0 0 16 16">
        <path d="M13.5893 0.458679L7.93196 6.11468L2.27596 0.458679L0.390625 2.34401L6.04662 8.00001L0.390625 13.656L2.27596 15.5413L7.93196 9.88535L13.5893 15.5413L15.4746 13.656L9.81863 8.00001L15.4746 2.34401L13.5893 0.458679Z" fill="#233F8A"/>
    </symbol>

    <symbol id="burger" viewBox="0 0 24 24">
        <path d="M4 6H20V8H4V6ZM4 11H20V13H4V11ZM4 16H20V18H4V16Z" fill="#1D1E20"/>
    </symbol>

    <symbol id="key" viewBox="0 0 24 24">
        <path d="M3.43308 17.325L3.07908 19.8C3.0572 19.9536 3.07138 20.1102 3.12048 20.2574C3.16958 20.4046 3.25226 20.5384 3.36199 20.6481C3.47171 20.7578 3.60546 20.8405 3.75266 20.8896C3.89985 20.9387 4.05646 20.9529 4.21008 20.931L6.68508 20.577C7.06008 20.524 8.00008 18 8.00008 18C8.00008 18 8.47208 18.405 8.66508 18.466C9.07708 18.596 9.47808 18.192 9.61308 17.782L10.0001 16.01C10.0001 16.01 10.5771 16.302 10.7861 16.345C11.0521 16.4 11.3101 16.236 11.4931 16.052C11.603 15.9424 11.6856 15.8085 11.7341 15.661L12.0001 14.01C12.0001 14.01 12.6751 14.197 12.9061 14.224C13.1691 14.254 13.4251 14.12 13.6131 13.931L14.7511 12.794C15.7144 13.1062 16.7451 13.1464 17.7299 12.9103C18.7146 12.6743 19.615 12.171 20.3321 11.456C21.3618 10.4237 21.94 9.02508 21.94 7.567C21.94 6.10892 21.3618 4.71035 20.3321 3.678C19.2997 2.64832 17.9012 2.07007 16.4431 2.07007C14.985 2.07007 13.5864 2.64832 12.5541 3.678C11.8389 4.39493 11.3355 5.29539 11.0994 6.28014C10.8633 7.2649 10.9037 8.29572 11.2161 9.259L3.71508 16.759C3.56197 16.9119 3.46296 17.1107 3.43308 17.325ZM18.5041 5.506C19.0496 6.05317 19.356 6.79432 19.356 7.567C19.356 8.33968 19.0496 9.08083 18.5041 9.628L14.3821 5.506C14.9293 4.96044 15.6704 4.65409 16.4431 4.65409C17.2158 4.65409 17.9569 4.96044 18.5041 5.506Z" fill="#233F8A"/>
    </symbol>

    <symbol id="buisness" viewBox="0 0 24 24">
        <path d="M21 7H15C14.7348 7 14.4804 7.10536 14.2929 7.29289C14.1054 7.48043 14 7.73478 14 8V11H12V4C12 3.73478 11.8946 3.48043 11.7071 3.29289C11.5196 3.10536 11.2652 3 11 3H3C2.73478 3 2.48043 3.10536 2.29289 3.29289C2.10536 3.48043 2 3.73478 2 4V20C2 20.2652 2.10536 20.5196 2.29289 20.7071C2.48043 20.8946 2.73478 21 3 21H21C21.2652 21 21.5196 20.8946 21.7071 20.7071C21.8946 20.5196 22 20.2652 22 20V8C22 7.73478 21.8946 7.48043 21.7071 7.29289C21.5196 7.10536 21.2652 7 21 7ZM8 6H10V8H8V6ZM6 16H4V14H6V16ZM6 12H4V10H6V12ZM6 8H4V6H6V8ZM10 16H8V14H10V16ZM10 12H8V10H10V12ZM19 16H17V14H19V16ZM19 12H17V10H19V12Z" fill="#233F8A"/>
    </symbol>

    <symbol id="briefcase" viewBox="0 0 24 24">
        <path d="M20 6H17V4C17 2.897 16.103 2 15 2H9C7.897 2 7 2.897 7 4V6H4C2.897 6 2 6.897 2 8V11H22V8C22 6.897 21.103 6 20 6ZM9 4H15V6H9V4ZM14 14H10V12H2V19C2 20.103 2.897 21 4 21H20C21.103 21 22 20.103 22 19V12H14V14Z" fill="#233F8A"/>
    </symbol>

    <symbol id="support" viewBox="0 0 24 24">
        <path d="M12 2C6.486 2 2 6.486 2 12V16.143C2 17.167 2.897 18 4 18H5C5.26522 18 5.51957 17.8946 5.70711 17.7071C5.89464 17.5196 6 17.2652 6 17V11.857C6 11.5918 5.89464 11.3374 5.70711 11.1499C5.51957 10.9624 5.26522 10.857 5 10.857H4.092C4.648 6.987 7.978 4 12 4C16.022 4 19.352 6.987 19.908 10.857H19C18.7348 10.857 18.4804 10.9624 18.2929 11.1499C18.1054 11.3374 18 11.5918 18 11.857V18C18 19.103 17.103 20 16 20H14V19H10V22H16C18.206 22 20 20.206 20 18C21.103 18 22 17.167 22 16.143V12C22 6.486 17.514 2 12 2Z" fill="#233F8A"/>
    </symbol>

    <symbol id="book" viewBox="0 0 24 24">
        <path d="M19 2H6C4.794 2 3 2.799 3 5V19C3 21.201 4.794 22 6 22H21V20H6.012C5.55 19.988 5 19.806 5 19C5 18.899 5.009 18.809 5.024 18.727C5.136 18.151 5.608 18.01 6.012 18H21V4C21 3.46957 20.7893 2.96086 20.4142 2.58579C20.0391 2.21071 19.5304 2 19 2ZM19 11L17 10L15 11V4H19V11Z" fill="#233F8A"/>
    </symbol>

    <symbol id="" viewBox="">
    </symbol>
</svg>