<svg version="1.1" xmlns="http://www.w3.org/2000/svg" xmlns:xlink="http://www.w3.org/1999/xlink">
    <symbol id="location" viewBox="0 0 20 20">
        <path d="M9.99999 1.66663C6.32415 1.66663 3.33332 4.65746 3.33332 8.32913C3.30915 13.7 9.74665 18.1533 9.99999 18.3333C9.99999 18.3333 16.6908 13.7 16.6667 8.33329C16.6667 4.65746 13.6758 1.66663 9.99999 1.66663ZM9.99999 11.6666C8.15832 11.6666 6.66665 10.175 6.66665 8.33329C6.66665 6.49163 8.15832 4.99996 9.99999 4.99996C11.8417 4.99996 13.3333 6.49163 13.3333 8.33329C13.3333 10.175 11.8417 11.6666 9.99999 11.6666Z"/>
    </symbol>

    <symbol id="user" viewBox="0 0 20 20">
        <path d="M10.0001 1.66663C5.48258 1.66663 1.66675 5.48246 1.66675 9.99996C1.66675 14.5175 5.48258 18.3333 10.0001 18.3333C14.5176 18.3333 18.3334 14.5175 18.3334 9.99996C18.3334 5.48246 14.5176 1.66663 10.0001 1.66663ZM10.0001 5.83329C11.4392 5.83329 12.5001 6.89329 12.5001 8.33329C12.5001 9.77329 11.4392 10.8333 10.0001 10.8333C8.56175 10.8333 7.50008 9.77329 7.50008 8.33329C7.50008 6.89329 8.56175 5.83329 10.0001 5.83329ZM5.74508 13.9766C6.49258 12.8766 7.73925 12.1433 9.16675 12.1433H10.8334C12.2617 12.1433 13.5076 12.8766 14.2551 13.9766C13.1901 15.1166 11.6792 15.8333 10.0001 15.8333C8.32091 15.8333 6.81008 15.1166 5.74508 13.9766Z"/>
    </symbol>

    <symbol id="heart" viewBox="0 0 24 24">
        <path d="M20.205 4.79099C19.6536 4.2357 18.9979 3.79488 18.2756 3.49387C17.5532 3.19286 16.7785 3.03759 15.996 3.03699C14.5158 3.03723 13.0897 3.59326 12 4.59499C10.9104 3.59309 9.48419 3.03703 8.00398 3.03699C7.22052 3.0378 6.44495 3.19355 5.72192 3.49526C4.99888 3.79696 4.34265 4.23868 3.79098 4.79499C1.43798 7.15799 1.43898 10.854 3.79298 13.207L12 21.414L20.207 13.207C22.561 10.854 22.562 7.15799 20.205 4.79099Z"/>
    </symbol>

    <symbol id="rate" viewBox="0 0 24 24">
        <path d="M6 21H3C2.73478 21 2.48043 20.8946 2.29289 20.7071C2.10536 20.5196 2 20.2652 2 20V12C2 11.7348 2.10536 11.4804 2.29289 11.2929C2.48043 11.1054 2.73478 11 3 11H6C6.26522 11 6.51957 11.1054 6.70711 11.2929C6.89464 11.4804 7 11.7348 7 12V20C7 20.2652 6.89464 20.5196 6.70711 20.7071C6.51957 20.8946 6.26522 21 6 21ZM13 21H10C9.73478 21 9.48043 20.8946 9.29289 20.7071C9.10536 20.5196 9 20.2652 9 20V3C9 2.73478 9.10536 2.48043 9.29289 2.29289C9.48043 2.10536 9.73478 2 10 2H13C13.2652 2 13.5196 2.10536 13.7071 2.29289C13.8946 2.48043 14 2.73478 14 3V20C14 20.2652 13.8946 20.5196 13.7071 20.7071C13.5196 20.8946 13.2652 21 13 21ZM20 21H17C16.7348 21 16.4804 20.8946 16.2929 20.7071C16.1054 20.5196 16 20.2652 16 20V9C16 8.73478 16.1054 8.48043 16.2929 8.29289C16.4804 8.10536 16.7348 8 17 8H20C20.2652 8 20.5196 8.10536 20.7071 8.29289C20.8946 8.48043 21 8.73478 21 9V20C21 20.2652 20.8946 20.5196 20.7071 20.7071C20.5196 20.8946 20.2652 21 20 21Z"/>
    </symbol>

    <symbol id="rise" viewBox="0 0 24 26">
        <rect y="0.747833" width="24" height="24.8348" rx="12" fill="#FFB529" fill-opacity="0.12"/>
        <path d="M16.4899 12.6488C16.4714 12.5562 16.4268 12.4707 16.3615 12.4024C16.2961 12.3342 16.2127 12.2859 16.1209 12.2633L12.6909 11.4053L13.9594 8.44483C14.0036 8.3421 14.012 8.2275 13.9832 8.11942C13.9545 8.01134 13.8903 7.91605 13.8009 7.84883C13.7117 7.78118 13.6023 7.74557 13.4903 7.74774C13.3784 7.74992 13.2704 7.78976 13.1839 7.86083L7.6839 12.3608C7.61216 12.4195 7.55815 12.497 7.52789 12.5846C7.49763 12.6722 7.49231 12.7665 7.51254 12.857C7.53277 12.9474 7.57774 13.0305 7.64243 13.0968C7.70713 13.1632 7.789 13.2103 7.8789 13.2328L11.2384 14.0733L9.5659 17.0003C9.52276 17.0764 9.50028 17.1624 9.50072 17.2498C9.50115 17.3372 9.52448 17.423 9.56837 17.4986C9.61227 17.5742 9.67521 17.637 9.75092 17.6808C9.82663 17.7245 9.91248 17.7476 9.9999 17.7478C10.1081 17.748 10.2134 17.7129 10.2999 17.6478L16.2999 13.1478C16.3755 13.0911 16.4335 13.0141 16.4671 12.9258C16.5007 12.8375 16.5086 12.7415 16.4899 12.6488Z" fill="#FFB529"/>
    </symbol>

    <symbol id="premium" viewBox="0 0 24 24">
        <rect width="24" height="24" rx="12" fill="#FFB529" fill-opacity="0.12"/>
        <path d="M18.6313 10.1193C18.5894 9.99591 18.5122 9.88746 18.4094 9.80737C18.3066 9.72729 18.1825 9.67907 18.0526 9.66867L14.2519 9.36667L12.6073 5.726C12.5549 5.60874 12.4697 5.50915 12.362 5.43924C12.2542 5.36933 12.1286 5.33209 12.0002 5.33202C11.8717 5.33195 11.746 5.36905 11.6382 5.43884C11.5304 5.50863 11.4451 5.60813 11.3926 5.72534L9.74794 9.36667L5.94727 9.66867C5.81957 9.67878 5.69749 9.72548 5.59564 9.80316C5.49378 9.88084 5.41646 9.98622 5.37293 10.1067C5.3294 10.2272 5.32149 10.3576 5.35017 10.4825C5.37884 10.6073 5.44287 10.7213 5.5346 10.8107L8.34327 13.5487L7.34994 17.85C7.31977 17.9802 7.32944 18.1165 7.37768 18.2411C7.42592 18.3657 7.51051 18.473 7.62047 18.549C7.73043 18.6249 7.86068 18.6661 7.99433 18.6671C8.12797 18.6681 8.25883 18.629 8.36994 18.5547L11.9999 16.1347L15.6299 18.5547C15.7435 18.6301 15.8774 18.6689 16.0137 18.6659C16.15 18.6629 16.2821 18.6183 16.3922 18.538C16.5023 18.4577 16.5853 18.3455 16.6298 18.2167C16.6743 18.0879 16.6783 17.9485 16.6413 17.8173L15.4219 13.5507L18.4459 10.8293C18.6439 10.6507 18.7166 10.372 18.6313 10.1193Z" fill="#FFB529"/>
    </symbol>

    <symbol id="chevron-down" viewBox="0 0 24 24">
    <path d="M16.293 9.29297L12 13.586L7.70697 9.29297L6.29297 10.707L12 16.414L17.707 10.707L16.293 9.29297Z" fill="#5E636E"/>
    </symbol>

    <symbol id="chevron-right" viewBox="0 0 24 24">
        <path d="M9.29297 7.70703L13.586 12L9.29297 16.293L10.707 17.707L16.414 12L10.707 6.29303L9.29297 7.70703Z" fill="#1D1E20"/>
    </symbol>

    <symbol id="checkbox" viewBox="0 0 24 24">
        <path d="M19 3H5C3.897 3 3 3.897 3 5V19C3 20.103 3.897 21 5 21H19C20.103 21 21 20.103 21 19V5C21 3.897 20.103 3 19 3ZM5 19V5H19L19.002 19H5Z" fill="#1D1E20"/>
    </symbol>

    <symbol id="checkbox-checked" viewBox="0 0 24 24">
        <path d="M10.933 13.519L8.70697 11.293L7.29297 12.707L11.067 16.481L16.769 9.64101L15.231 8.35901L10.933 13.519Z" fill="#233F8A"/>
        <path d="M19 3H5C3.897 3 3 3.897 3 5V19C3 20.103 3.897 21 5 21H19C20.103 21 21 20.103 21 19V5C21 3.897 20.103 3 19 3ZM5 19V5H19L19.002 19H5Z" fill="#233F8A"/>
    </symbol>

    <symbol id="cross" viewBox="0 0 16 16">
        <path d="M13.5893 0.458679L7.93196 6.11468L2.27596 0.458679L0.390625 2.34401L6.04662 8.00001L0.390625 13.656L2.27596 15.5413L7.93196 9.88535L13.5893 15.5413L15.4746 13.656L9.81863 8.00001L15.4746 2.34401L13.5893 0.458679Z" fill="white"/>
    </symbol>

    <symbol id="cross-blue" viewBox="0 0 16 16">
        <path d="M13.5893 0.458679L7.93196 6.11468L2.27596 0.458679L0.390625 2.34401L6.04662 8.00001L0.390625 13.656L2.27596 15.5413L7.93196 9.88535L13.5893 15.5413L15.4746 13.656L9.81863 8.00001L15.4746 2.34401L13.5893 0.458679Z" fill="#233F8A"/>
    </symbol>

    <symbol id="burger" viewBox="0 0 24 24">
        <path d="M4 6H20V8H4V6ZM4 11H20V13H4V11ZM4 16H20V18H4V16Z" fill="#1D1E20"/>
    </symbol>

    <symbol id="key" viewBox="0 0 24 24">
        <path d="M3.43308 17.325L3.07908 19.8C3.0572 19.9536 3.07138 20.1102 3.12048 20.2574C3.16958 20.4046 3.25226 20.5384 3.36199 20.6481C3.47171 20.7578 3.60546 20.8405 3.75266 20.8896C3.89985 20.9387 4.05646 20.9529 4.21008 20.931L6.68508 20.577C7.06008 20.524 8.00008 18 8.00008 18C8.00008 18 8.47208 18.405 8.66508 18.466C9.07708 18.596 9.47808 18.192 9.61308 17.782L10.0001 16.01C10.0001 16.01 10.5771 16.302 10.7861 16.345C11.0521 16.4 11.3101 16.236 11.4931 16.052C11.603 15.9424 11.6856 15.8085 11.7341 15.661L12.0001 14.01C12.0001 14.01 12.6751 14.197 12.9061 14.224C13.1691 14.254 13.4251 14.12 13.6131 13.931L14.7511 12.794C15.7144 13.1062 16.7451 13.1464 17.7299 12.9103C18.7146 12.6743 19.615 12.171 20.3321 11.456C21.3618 10.4237 21.94 9.02508 21.94 7.567C21.94 6.10892 21.3618 4.71035 20.3321 3.678C19.2997 2.64832 17.9012 2.07007 16.4431 2.07007C14.985 2.07007 13.5864 2.64832 12.5541 3.678C11.8389 4.39493 11.3355 5.29539 11.0994 6.28014C10.8633 7.2649 10.9037 8.29572 11.2161 9.259L3.71508 16.759C3.56197 16.9119 3.46296 17.1107 3.43308 17.325ZM18.5041 5.506C19.0496 6.05317 19.356 6.79432 19.356 7.567C19.356 8.33968 19.0496 9.08083 18.5041 9.628L14.3821 5.506C14.9293 4.96044 15.6704 4.65409 16.4431 4.65409C17.2158 4.65409 17.9569 4.96044 18.5041 5.506Z" fill="#233F8A"/>
    </symbol>

    <symbol id="buisness" viewBox="0 0 24 24">
        <path d="M21 7H15C14.7348 7 14.4804 7.10536 14.2929 7.29289C14.1054 7.48043 14 7.73478 14 8V11H12V4C12 3.73478 11.8946 3.48043 11.7071 3.29289C11.5196 3.10536 11.2652 3 11 3H3C2.73478 3 2.48043 3.10536 2.29289 3.29289C2.10536 3.48043 2 3.73478 2 4V20C2 20.2652 2.10536 20.5196 2.29289 20.7071C2.48043 20.8946 2.73478 21 3 21H21C21.2652 21 21.5196 20.8946 21.7071 20.7071C21.8946 20.5196 22 20.2652 22 20V8C22 7.73478 21.8946 7.48043 21.7071 7.29289C21.5196 7.10536 21.2652 7 21 7ZM8 6H10V8H8V6ZM6 16H4V14H6V16ZM6 12H4V10H6V12ZM6 8H4V6H6V8ZM10 16H8V14H10V16ZM10 12H8V10H10V12ZM19 16H17V14H19V16ZM19 12H17V10H19V12Z" fill="#233F8A"/>
    </symbol>

    <symbol id="briefcase" viewBox="0 0 24 24">
        <path d="M20 6H17V4C17 2.897 16.103 2 15 2H9C7.897 2 7 2.897 7 4V6H4C2.897 6 2 6.897 2 8V11H22V8C22 6.897 21.103 6 20 6ZM9 4H15V6H9V4ZM14 14H10V12H2V19C2 20.103 2.897 21 4 21H20C21.103 21 22 20.103 22 19V12H14V14Z" fill="#233F8A"/>
    </symbol>

    <symbol id="support" viewBox="0 0 24 24">
        <path d="M12 2C6.486 2 2 6.486 2 12V16.143C2 17.167 2.897 18 4 18H5C5.26522 18 5.51957 17.8946 5.70711 17.7071C5.89464 17.5196 6 17.2652 6 17V11.857C6 11.5918 5.89464 11.3374 5.70711 11.1499C5.51957 10.9624 5.26522 10.857 5 10.857H4.092C4.648 6.987 7.978 4 12 4C16.022 4 19.352 6.987 19.908 10.857H19C18.7348 10.857 18.4804 10.9624 18.2929 11.1499C18.1054 11.3374 18 11.5918 18 11.857V18C18 19.103 17.103 20 16 20H14V19H10V22H16C18.206 22 20 20.206 20 18C21.103 18 22 17.167 22 16.143V12C22 6.486 17.514 2 12 2Z" fill="#233F8A"/>
    </symbol>

    <symbol id="book" viewBox="0 0 24 24">
        <path d="M19 2H6C4.794 2 3 2.799 3 5V19C3 21.201 4.794 22 6 22H21V20H6.012C5.55 19.988 5 19.806 5 19C5 18.899 5.009 18.809 5.024 18.727C5.136 18.151 5.608 18.01 6.012 18H21V4C21 3.46957 20.7893 2.96086 20.4142 2.58579C20.0391 2.21071 19.5304 2 19 2ZM19 11L17 10L15 11V4H19V11Z" fill="#233F8A"/>
    </symbol>

    <symbol id="settings" viewBox="0 0 20 20">
        <path d="M1.95333 12.7258L3.62 15.6091C3.73065 15.8004 3.91272 15.9399 4.12619 15.9969C4.33965 16.0539 4.56703 16.0239 4.75833 15.9133L5.92166 15.2416C6.405 15.6225 6.93916 15.935 7.50083 16.1683V17.5C7.50083 17.721 7.58863 17.9329 7.74491 18.0892C7.90119 18.2455 8.11315 18.3333 8.33416 18.3333H11.6675C11.8885 18.3333 12.1005 18.2455 12.2568 18.0892C12.413 17.9329 12.5008 17.721 12.5008 17.5V16.1683C13.0669 15.9326 13.5982 15.6209 14.08 15.2416L15.2433 15.9133C15.6408 16.1425 16.1525 16.005 16.3817 15.6091L18.0483 12.7258C18.158 12.5343 18.1876 12.3072 18.1306 12.094C18.0736 11.8808 17.9347 11.6987 17.7442 11.5875L16.6008 10.9266C16.6902 10.312 16.6896 9.68772 16.5992 9.07329L17.7425 8.41246C18.1392 8.18329 18.2767 7.67079 18.0467 7.27413L16.38 4.39079C16.2693 4.19954 16.0873 4.06006 15.8738 4.00302C15.6603 3.94598 15.433 3.97605 15.2417 4.08663L14.0783 4.75829C13.5971 4.37861 13.066 4.06681 12.5 3.83163V2.49996C12.5 2.27895 12.4122 2.06698 12.2559 1.9107C12.0996 1.75442 11.8877 1.66663 11.6667 1.66663H8.33333C8.11231 1.66663 7.90035 1.75442 7.74407 1.9107C7.58779 2.06698 7.5 2.27895 7.5 2.49996V3.83163C6.93393 4.0673 6.40265 4.37906 5.92083 4.75829L4.75833 4.08663C4.66364 4.03177 4.55905 3.99611 4.45057 3.98171C4.34208 3.96731 4.23182 3.97444 4.1261 4.00269C4.02037 4.03094 3.92125 4.07976 3.83441 4.14635C3.74756 4.21295 3.6747 4.29601 3.62 4.39079L1.95333 7.27413C1.84365 7.46563 1.81408 7.69271 1.87105 7.90592C1.92802 8.11912 2.06692 8.30119 2.2575 8.41246L3.40083 9.07329C3.31094 9.6878 3.31094 10.3121 3.40083 10.9266L2.2575 11.5875C1.86083 11.8166 1.72333 12.3291 1.95333 12.7258ZM10 6.66663C11.8383 6.66663 13.3333 8.16163 13.3333 9.99996C13.3333 11.8383 11.8383 13.3333 10 13.3333C8.16166 13.3333 6.66666 11.8383 6.66666 9.99996C6.66666 8.16163 8.16166 6.66663 10 6.66663Z" fill="#8F96A3"/>
    </symbol>

    <symbol id="dollar" viewBox="0 0 24 24">
        <path d="M2.04693 14.6679C2.08053 14.7948 2.13892 14.9138 2.21873 15.0179C2.29854 15.1221 2.39819 15.2095 2.51193 15.2749L4.42193 16.3789V18.5779C4.42193 18.8432 4.52729 19.0975 4.71483 19.285C4.90236 19.4726 5.15672 19.5779 5.42193 19.5779H7.62093L8.72493 21.4879C8.81346 21.6393 8.93987 21.765 9.09171 21.8526C9.24355 21.9403 9.4156 21.9869 9.59093 21.9879C9.76493 21.9879 9.93793 21.9419 10.0919 21.8529L11.9999 20.7499L13.9099 21.8539C14.1396 21.9864 14.4123 22.0223 14.6684 21.9539C14.9245 21.8854 15.143 21.7182 15.2759 21.4889L16.3789 19.5789H18.5779C18.8431 19.5789 19.0975 19.4736 19.285 19.286C19.4726 19.0985 19.5779 18.8442 19.5779 18.5789V16.3799L21.4879 15.2759C21.6017 15.2102 21.7014 15.1227 21.7813 15.0184C21.8613 14.9141 21.9198 14.795 21.9537 14.6681C21.9876 14.5411 21.9962 14.4087 21.9789 14.2785C21.9616 14.1482 21.9188 14.0227 21.8529 13.9089L20.7499 11.9999L21.8539 10.0919C21.9866 9.86238 22.0227 9.58953 21.9543 9.33337C21.8858 9.07721 21.7184 8.85872 21.4889 8.72594L19.5789 7.62194V5.42194C19.5789 5.15672 19.4736 4.90237 19.286 4.71483C19.0985 4.5273 18.8441 4.42194 18.5789 4.42194H16.3799L15.2769 2.51294C15.1437 2.28386 14.9257 2.11645 14.6699 2.04694C14.5431 2.01256 14.4107 2.00369 14.2804 2.02086C14.1501 2.03802 14.0245 2.08088 13.9109 2.14694L11.9999 3.24994L10.0909 2.14594C9.86137 2.01326 9.58852 1.97717 9.33236 2.04562C9.0762 2.11406 8.85771 2.28144 8.72493 2.51094L7.62093 4.42094H5.42193C5.15672 4.42094 4.90236 4.5263 4.71483 4.71384C4.52729 4.90137 4.42193 5.15573 4.42193 5.42094V7.61994L2.51193 8.72394C2.28249 8.85729 2.11526 9.07614 2.04684 9.33254C1.97843 9.58895 2.01442 9.86202 2.14693 10.0919L3.25093 11.9999L2.14693 13.9079C2.01492 14.1383 1.97899 14.4113 2.04693 14.6679ZM11.9999 12.9999C8.51993 12.9999 7.99993 11.1209 7.99993 9.99994C7.99993 8.71294 9.02893 7.41694 10.9999 7.08494V6.01194H12.9999V7.12094C14.7339 7.53094 15.3999 8.97394 15.3999 9.99994H14.3999L13.3999 10.0179C13.3859 9.63794 13.1849 8.99994 11.9999 8.99994C10.7009 8.99994 9.99993 9.51494 9.99993 9.99994C9.99993 10.3739 9.99993 10.9999 11.9999 10.9999C15.4799 10.9999 15.9999 12.8789 15.9999 13.9999C15.9999 15.2869 14.9709 16.5829 12.9999 16.9149V17.9999H10.9999V16.9199C8.66093 16.5529 7.99993 14.9169 7.99993 13.9999H9.99993C10.0109 14.1429 10.1589 14.9999 11.9999 14.9999C13.3799 14.9999 13.9999 14.4149 13.9999 13.9999C13.9999 13.6749 13.9999 12.9999 11.9999 12.9999Z" fill="#233F8A"/>
    </symbol>

    <symbol id="chat" viewBox="0 0 24 24">
        <path d="M4 18H6V22.081L11.101 18H16C17.103 18 18 17.103 18 16V8C18 6.897 17.103 6 16 6H4C2.897 6 2 6.897 2 8V16C2 17.103 2.897 18 4 18Z" fill="#233F8A"/>
        <path d="M20 2H8C6.897 2 6 2.897 6 4H18C19.103 4 20 4.897 20 6V14C21.103 14 22 13.103 22 12V4C22 2.897 21.103 2 20 2Z" fill="#233F8A"/>
    </symbol>

    <symbol id="collection" viewBox="0 0 24 24">
        <path d="M19 10H5C3.897 10 3 10.897 3 12V20C3 21.103 3.897 22 5 22H19C20.103 22 21 21.103 21 20V12C21 10.897 20.103 10 19 10ZM5 6H19V8H5V6ZM7 2H17V4H7V2Z" fill="#233F8A"/>
]    </symbol>

    <symbol id="discount" viewBox="0 0 24 24">
        <path d="M21 5H3C2.73478 5 2.48043 5.10536 2.29289 5.29289C2.10536 5.48043 2 5.73478 2 6V10H2.893C3.889 10 4.813 10.681 4.973 11.664C5.02174 11.951 5.00726 12.2453 4.93056 12.5261C4.85387 12.807 4.71681 13.0677 4.52894 13.2902C4.34108 13.5126 4.10694 13.6913 3.84287 13.8139C3.57879 13.9365 3.29115 14 3 14H2V18C2 18.2652 2.10536 18.5196 2.29289 18.7071C2.48043 18.8946 2.73478 19 3 19H21C21.2652 19 21.5196 18.8946 21.7071 18.7071C21.8946 18.5196 22 18.2652 22 18V14H21C20.7089 14 20.4212 13.9365 20.1571 13.8139C19.8931 13.6913 19.6589 13.5126 19.4711 13.2902C19.2832 13.0677 19.1461 12.807 19.0694 12.5261C18.9927 12.2453 18.9783 11.951 19.027 11.664C19.187 10.681 20.111 10 21.107 10H22V6C22 5.73478 21.8946 5.48043 21.7071 5.29289C21.5196 5.10536 21.2652 5 21 5ZM9 9C9.26522 9 9.51957 9.10536 9.70711 9.29289C9.89464 9.48043 10 9.73478 10 10C10 10.2652 9.89464 10.5196 9.70711 10.7071C9.51957 10.8946 9.26522 11 9 11C8.73478 11 8.48043 10.8946 8.29289 10.7071C8.10536 10.5196 8 10.2652 8 10C8 9.73478 8.10536 9.48043 8.29289 9.29289C8.48043 9.10536 8.73478 9 9 9ZM8.2 15.4L14.2 7.4L15.8 8.6L9.8 16.6L8.2 15.4ZM15 15C14.7348 15 14.4804 14.8946 14.2929 14.7071C14.1054 14.5196 14 14.2652 14 14C14 13.7348 14.1054 13.4804 14.2929 13.2929C14.4804 13.1054 14.7348 13 15 13C15.2652 13 15.5196 13.1054 15.7071 13.2929C15.8946 13.4804 16 13.7348 16 14C16 14.2652 15.8946 14.5196 15.7071 14.7071C15.5196 14.8946 15.2652 15 15 15Z" fill="#233F8A"/>
]    </symbol>

    <symbol id="spreadsheet" viewBox="0 0 24 24">
        <path d="M3 5V19C3 19.5304 3.21071 20.0391 3.58579 20.4142C3.96086 20.7893 4.46957 21 5 21H19C19.5304 21 20.0391 20.7893 20.4142 20.4142C20.7893 20.0391 21 19.5304 21 19V5C21 4.46957 20.7893 3.96086 20.4142 3.58579C20.0391 3.21071 19.5304 3 19 3H5C4.46957 3 3.96086 3.21071 3.58579 3.58579C3.21071 3.96086 3 4.46957 3 5ZM10 7H18V9H10V7ZM10 11H18V13H10V11ZM10 15H18V17H10V15ZM6 7H8V9H6V7ZM6 11H8V13H6V11ZM6 15H8V17H6V15Z" fill="#233F8A"/>
    </symbol>

    <symbol id="arrow-down" viewBox="0 0 24 24">
        <path d="M18.707 12.707L17.293 11.293L13 15.586V6H11V15.586L6.70697 11.293L5.29297 12.707L12 19.414L18.707 12.707Z" fill="#1D1E20"/>
    </symbol>

    <symbol id="edit" viewBox="0 0 16 16">
        <path d="M12.6586 1.34131L14.6586 3.34131L13.1339 4.86664L11.1339 2.86664L12.6586 1.34131ZM5.33325 10.6666H7.33325L12.1913 5.80864L10.1913 3.80864L5.33325 8.66664V10.6666Z" fill="white"/>
        <path d="M12.6667 12.6667H5.43867C5.42133 12.6667 5.40333 12.6733 5.386 12.6733C5.364 12.6733 5.342 12.6673 5.31933 12.6667H3.33333V3.33333H7.898L9.23133 2H3.33333C2.598 2 2 2.59733 2 3.33333V12.6667C2 13.4027 2.598 14 3.33333 14H12.6667C13.0203 14 13.3594 13.8595 13.6095 13.6095C13.8595 13.3594 14 13.0203 14 12.6667V6.888L12.6667 8.22133V12.6667Z" fill="white"/>
    </symbol>

    <symbol id="phone" viewBox="0 0 20 20">
        <path d="M17.0725 14.2832L13.685 11.2032C13.5249 11.0577 13.3144 10.98 13.0982 10.9867C12.8819 10.9934 12.6767 11.0839 12.5258 11.239L10.5317 13.2899C10.0517 13.1982 9.08666 12.8974 8.09332 11.9065C7.09999 10.9124 6.79916 9.94487 6.70999 9.46821L8.75916 7.47321C8.9145 7.32248 9.0051 7.11723 9.01179 6.90088C9.01848 6.68453 8.94073 6.47407 8.79499 6.31404L5.71582 2.92737C5.57003 2.76684 5.36739 2.66946 5.15095 2.65592C4.93451 2.64239 4.72132 2.71376 4.55666 2.85487L2.74832 4.40571C2.60425 4.5503 2.51826 4.74275 2.50666 4.94654C2.49416 5.15487 2.25582 10.0899 6.08249 13.9182C9.42082 17.2557 13.6025 17.4999 14.7542 17.4999C14.9225 17.4999 15.0258 17.4949 15.0533 17.4932C15.2571 17.4818 15.4494 17.3954 15.5933 17.2507L17.1433 15.4415C17.285 15.2774 17.3569 15.0644 17.3437 14.848C17.3304 14.6315 17.2331 14.4289 17.0725 14.2832Z" fill="white"/>
    </symbol>

    <symbol id="message" viewBox="0 0 21 20">
        <path d="M17.1667 1.66602H3.83341C2.91425 1.66602 2.16675 2.41102 2.16675 3.32602V13.3402C2.16675 14.2544 2.91425 14.9994 3.83341 14.9994H6.33342V18.3327L11.6259 14.9994H17.1667C18.0859 14.9994 18.8334 14.2544 18.8334 13.3394V3.32602C18.8321 2.88501 18.6559 2.46254 18.3434 2.15133C18.0309 1.84011 17.6078 1.66557 17.1667 1.66602ZM9.66675 8.33268C9.66675 8.66232 9.569 8.98455 9.38586 9.25863C9.20273 9.53272 8.94243 9.74634 8.63789 9.87248C8.33334 9.99863 7.99823 10.0316 7.67493 9.96733C7.35163 9.90302 7.05466 9.74428 6.82157 9.5112C6.58848 9.27811 6.42975 8.98114 6.36544 8.65783C6.30113 8.33453 6.33414 7.99942 6.46028 7.69488C6.58643 7.39033 6.80005 7.13004 7.07413 6.9469C7.34821 6.76377 7.67045 6.66602 8.00008 6.66602C8.07175 6.66602 8.13925 6.67852 8.20842 6.68685C8.27675 6.67518 8.34508 6.66602 8.41675 6.66602C8.74827 6.66602 9.06621 6.79771 9.30063 7.03213C9.53505 7.26655 9.66675 7.5845 9.66675 7.91602C9.66675 7.98768 9.65675 8.05602 9.64592 8.12435C9.65425 8.19352 9.66675 8.26185 9.66675 8.33268ZM13.0001 9.99935C12.5581 9.99935 12.1341 9.82376 11.8216 9.5112C11.509 9.19863 11.3334 8.77471 11.3334 8.33268C11.3334 8.26102 11.3459 8.19352 11.3542 8.12435C11.3418 8.05556 11.3349 7.9859 11.3334 7.91602C11.3334 7.5845 11.4651 7.26655 11.6995 7.03213C11.934 6.79771 12.2519 6.66602 12.5834 6.66602C12.6551 6.66602 12.7234 6.67518 12.7917 6.68685C12.8609 6.67852 12.9284 6.66602 13.0001 6.66602C13.4421 6.66602 13.866 6.84161 14.1786 7.15417C14.4912 7.46673 14.6667 7.89066 14.6667 8.33268C14.6667 8.77471 14.4912 9.19863 14.1786 9.5112C13.866 9.82376 13.4421 9.99935 13.0001 9.99935Z" fill="#233F8A"/>
    </symbol>

    <symbol id="" viewBox="">
    </symbol>
</svg>