<svg width="16" height="16" viewBox="0 0 16 16" fill="none" xmlns="http://www.w3.org/2000/svg">
<path d="M12.6586 1.34131L14.6586 3.34131L13.1339 4.86664L11.1339 2.86664L12.6586 1.34131ZM5.33325 10.6666H7.33325L12.1913 5.80864L10.1913 3.80864L5.33325 8.66664V10.6666Z" fill="white"/>
<path d="M12.6667 12.6667H5.43867C5.42133 12.6667 5.40333 12.6733 5.386 12.6733C5.364 12.6733 5.342 12.6673 5.31933 12.6667H3.33333V3.33333H7.898L9.23133 2H3.33333C2.598 2 2 2.59733 2 3.33333V12.6667C2 13.4027 2.598 14 3.33333 14H12.6667C13.0203 14 13.3594 13.8595 13.6095 13.6095C13.8595 13.3594 14 13.0203 14 12.6667V6.888L12.6667 8.22133V12.6667Z" fill="white"/>
</svg>
