<svg width="21" height="20" viewBox="0 0 21 20" fill="none" xmlns="http://www.w3.org/2000/svg">
<path d="M17.1667 1.66602H3.83341C2.91425 1.66602 2.16675 2.41102 2.16675 3.32602V13.3402C2.16675 14.2544 2.91425 14.9994 3.83341 14.9994H6.33342V18.3327L11.6259 14.9994H17.1667C18.0859 14.9994 18.8334 14.2544 18.8334 13.3394V3.32602C18.8321 2.88501 18.6559 2.46254 18.3434 2.15133C18.0309 1.84011 17.6078 1.66557 17.1667 1.66602ZM9.66675 8.33268C9.66675 8.66232 9.569 8.98455 9.38586 9.25863C9.20273 9.53272 8.94243 9.74634 8.63789 9.87248C8.33334 9.99863 7.99823 10.0316 7.67493 9.96733C7.35163 9.90302 7.05466 9.74428 6.82157 9.5112C6.58848 9.27811 6.42975 8.98114 6.36544 8.65783C6.30113 8.33453 6.33414 7.99942 6.46028 7.69488C6.58643 7.39033 6.80005 7.13004 7.07413 6.9469C7.34821 6.76377 7.67045 6.66602 8.00008 6.66602C8.07175 6.66602 8.13925 6.67852 8.20842 6.68685C8.27675 6.67518 8.34508 6.66602 8.41675 6.66602C8.74827 6.66602 9.06621 6.79771 9.30063 7.03213C9.53505 7.26655 9.66675 7.5845 9.66675 7.91602C9.66675 7.98768 9.65675 8.05602 9.64592 8.12435C9.65425 8.19352 9.66675 8.26185 9.66675 8.33268ZM13.0001 9.99935C12.5581 9.99935 12.1341 9.82376 11.8216 9.5112C11.509 9.19863 11.3334 8.77471 11.3334 8.33268C11.3334 8.26102 11.3459 8.19352 11.3542 8.12435C11.3418 8.05556 11.3349 7.9859 11.3334 7.91602C11.3334 7.5845 11.4651 7.26655 11.6995 7.03213C11.934 6.79771 12.2519 6.66602 12.5834 6.66602C12.6551 6.66602 12.7234 6.67518 12.7917 6.68685C12.8609 6.67852 12.9284 6.66602 13.0001 6.66602C13.4421 6.66602 13.866 6.84161 14.1786 7.15417C14.4912 7.46673 14.6667 7.89066 14.6667 8.33268C14.6667 8.77471 14.4912 9.19863 14.1786 9.5112C13.866 9.82376 13.4421 9.99935 13.0001 9.99935Z" fill="#233F8A"/>
</svg>
