<svg width="19" height="19" viewBox="0 0 19 19" fill="none" xmlns="http://www.w3.org/2000/svg">
<path d="M0.433081 15.325L0.0790807 17.8C0.0572033 17.9536 0.0713762 18.1102 0.120478 18.2574C0.169579 18.4046 0.252262 18.5384 0.361985 18.6481C0.471708 18.7578 0.605459 18.8405 0.752657 18.8896C0.899854 18.9387 1.05646 18.9529 1.21008 18.931L3.68508 18.577C4.06008 18.524 5.00008 16 5.00008 16C5.00008 16 5.47208 16.405 5.66508 16.466C6.07708 16.596 6.47808 16.192 6.61308 15.782L7.00008 14.01C7.00008 14.01 7.57708 14.302 7.78608 14.345C8.05208 14.4 8.31008 14.236 8.49308 14.052C8.60301 13.9424 8.68558 13.8085 8.73408 13.661L9.00008 12.01C9.00008 12.01 9.67508 12.197 9.90608 12.224C10.1691 12.254 10.4251 12.12 10.6131 11.931L11.7511 10.794C12.7144 11.1062 13.7451 11.1464 14.7299 10.9103C15.7146 10.6743 16.615 10.171 17.3321 9.456C18.3618 8.42365 18.94 7.02508 18.94 5.567C18.94 4.10892 18.3618 2.71035 17.3321 1.678C16.2997 0.648316 14.9012 0.0700684 13.4431 0.0700684C11.985 0.0700684 10.5864 0.648316 9.55408 1.678C8.83889 2.39493 8.3355 3.29539 8.09942 4.28014C7.86333 5.2649 7.9037 6.29572 8.21608 7.259L0.715081 14.759C0.561974 14.9119 0.462962 15.1107 0.433081 15.325ZM15.5041 3.506C16.0496 4.05317 16.356 4.79432 16.356 5.567C16.356 6.33968 16.0496 7.08083 15.5041 7.628L11.3821 3.506C11.9293 2.96044 12.6704 2.65409 13.4431 2.65409C14.2158 2.65409 14.9569 2.96044 15.5041 3.506Z" fill="#233F8A"/>
</svg>
