<svg width="24" height="24" viewBox="0 0 24 24" fill="none" xmlns="http://www.w3.org/2000/svg">
<rect width="24" height="24" rx="12" fill="#FFB529" fill-opacity="0.12"/>
<path d="M18.6313 10.1193C18.5894 9.99591 18.5122 9.88746 18.4094 9.80737C18.3066 9.72729 18.1825 9.67907 18.0526 9.66867L14.2519 9.36667L12.6073 5.726C12.5549 5.60874 12.4697 5.50915 12.362 5.43924C12.2542 5.36933 12.1286 5.33209 12.0002 5.33202C11.8717 5.33195 11.746 5.36905 11.6382 5.43884C11.5304 5.50863 11.4451 5.60813 11.3926 5.72534L9.74794 9.36667L5.94727 9.66867C5.81957 9.67878 5.69749 9.72548 5.59564 9.80316C5.49378 9.88084 5.41646 9.98622 5.37293 10.1067C5.3294 10.2272 5.32149 10.3576 5.35017 10.4825C5.37884 10.6073 5.44287 10.7213 5.5346 10.8107L8.34327 13.5487L7.34994 17.85C7.31977 17.9802 7.32944 18.1165 7.37768 18.2411C7.42592 18.3657 7.51051 18.473 7.62047 18.549C7.73043 18.6249 7.86068 18.6661 7.99433 18.6671C8.12797 18.6681 8.25883 18.629 8.36994 18.5547L11.9999 16.1347L15.6299 18.5547C15.7435 18.6301 15.8774 18.6689 16.0137 18.6659C16.15 18.6629 16.2821 18.6183 16.3922 18.538C16.5023 18.4577 16.5853 18.3455 16.6298 18.2167C16.6743 18.0879 16.6783 17.9485 16.6413 17.8173L15.4219 13.5507L18.4459 10.8293C18.6439 10.6507 18.7166 10.372 18.6313 10.1193Z" fill="#FFB529"/>
</svg>
