<svg width="24" height="26" viewBox="0 0 24 26" fill="none" xmlns="http://www.w3.org/2000/svg">
<rect y="0.747833" width="24" height="24.8348" rx="12" fill="#FFB529" fill-opacity="0.12"/>
<path d="M16.4899 12.6488C16.4714 12.5562 16.4268 12.4707 16.3615 12.4024C16.2961 12.3342 16.2127 12.2859 16.1209 12.2633L12.6909 11.4053L13.9594 8.44483C14.0036 8.3421 14.012 8.2275 13.9832 8.11942C13.9545 8.01134 13.8903 7.91605 13.8009 7.84883C13.7117 7.78118 13.6023 7.74557 13.4903 7.74774C13.3784 7.74992 13.2704 7.78976 13.1839 7.86083L7.6839 12.3608C7.61216 12.4195 7.55815 12.497 7.52789 12.5846C7.49763 12.6722 7.49231 12.7665 7.51254 12.857C7.53277 12.9474 7.57774 13.0305 7.64243 13.0968C7.70713 13.1632 7.789 13.2103 7.8789 13.2328L11.2384 14.0733L9.5659 17.0003C9.52276 17.0764 9.50028 17.1624 9.50072 17.2498C9.50115 17.3372 9.52448 17.423 9.56837 17.4986C9.61227 17.5742 9.67521 17.637 9.75092 17.6808C9.82663 17.7245 9.91248 17.7476 9.9999 17.7478C10.1081 17.748 10.2134 17.7129 10.2999 17.6478L16.2999 13.1478C16.3755 13.0911 16.4335 13.0141 16.4671 12.9258C16.5007 12.8375 16.5086 12.7415 16.4899 12.6488Z" fill="#FFB529"/>
</svg>
