<svg width="20" height="20" viewBox="0 0 20 20" fill="none" xmlns="http://www.w3.org/2000/svg">
<path d="M1.95333 12.7258L3.62 15.6091C3.73065 15.8004 3.91272 15.9399 4.12619 15.9969C4.33965 16.0539 4.56703 16.0239 4.75833 15.9133L5.92166 15.2416C6.405 15.6225 6.93916 15.935 7.50083 16.1683V17.5C7.50083 17.721 7.58863 17.9329 7.74491 18.0892C7.90119 18.2455 8.11315 18.3333 8.33416 18.3333H11.6675C11.8885 18.3333 12.1005 18.2455 12.2568 18.0892C12.413 17.9329 12.5008 17.721 12.5008 17.5V16.1683C13.0669 15.9326 13.5982 15.6209 14.08 15.2416L15.2433 15.9133C15.6408 16.1425 16.1525 16.005 16.3817 15.6091L18.0483 12.7258C18.158 12.5343 18.1876 12.3072 18.1306 12.094C18.0736 11.8808 17.9347 11.6987 17.7442 11.5875L16.6008 10.9266C16.6902 10.312 16.6896 9.68772 16.5992 9.07329L17.7425 8.41246C18.1392 8.18329 18.2767 7.67079 18.0467 7.27413L16.38 4.39079C16.2693 4.19954 16.0873 4.06006 15.8738 4.00302C15.6603 3.94598 15.433 3.97605 15.2417 4.08663L14.0783 4.75829C13.5971 4.37861 13.066 4.06681 12.5 3.83163V2.49996C12.5 2.27895 12.4122 2.06698 12.2559 1.9107C12.0996 1.75442 11.8877 1.66663 11.6667 1.66663H8.33333C8.11231 1.66663 7.90035 1.75442 7.74407 1.9107C7.58779 2.06698 7.5 2.27895 7.5 2.49996V3.83163C6.93393 4.0673 6.40265 4.37906 5.92083 4.75829L4.75833 4.08663C4.66364 4.03177 4.55905 3.99611 4.45057 3.98171C4.34208 3.96731 4.23182 3.97444 4.1261 4.00269C4.02037 4.03094 3.92125 4.07976 3.83441 4.14635C3.74756 4.21295 3.6747 4.29601 3.62 4.39079L1.95333 7.27413C1.84365 7.46563 1.81408 7.69271 1.87105 7.90592C1.92802 8.11912 2.06692 8.30119 2.2575 8.41246L3.40083 9.07329C3.31094 9.6878 3.31094 10.3121 3.40083 10.9266L2.2575 11.5875C1.86083 11.8166 1.72333 12.3291 1.95333 12.7258ZM10 6.66663C11.8383 6.66663 13.3333 8.16163 13.3333 9.99996C13.3333 11.8383 11.8383 13.3333 10 13.3333C8.16166 13.3333 6.66666 11.8383 6.66666 9.99996C6.66666 8.16163 8.16166 6.66663 10 6.66663Z" fill="#8F96A3"/>
</svg>
