<svg width="20" height="20" viewBox="0 0 20 20" fill="none" xmlns="http://www.w3.org/2000/svg">
<path d="M10.0001 1.66663C5.48258 1.66663 1.66675 5.48246 1.66675 9.99996C1.66675 14.5175 5.48258 18.3333 10.0001 18.3333C14.5176 18.3333 18.3334 14.5175 18.3334 9.99996C18.3334 5.48246 14.5176 1.66663 10.0001 1.66663ZM10.0001 5.83329C11.4392 5.83329 12.5001 6.89329 12.5001 8.33329C12.5001 9.77329 11.4392 10.8333 10.0001 10.8333C8.56175 10.8333 7.50008 9.77329 7.50008 8.33329C7.50008 6.89329 8.56175 5.83329 10.0001 5.83329ZM5.74508 13.9766C6.49258 12.8766 7.73925 12.1433 9.16675 12.1433H10.8334C12.2617 12.1433 13.5076 12.8766 14.2551 13.9766C13.1901 15.1166 11.6792 15.8333 10.0001 15.8333C8.32091 15.8333 6.81008 15.1166 5.74508 13.9766Z" fill="#1D1E20"/>
</svg>
