<?xml version="1.0" standalone="no"?>
<!DOCTYPE svg PUBLIC "-//W3C//DTD SVG 20010904//EN"
 "http://www.w3.org/TR/2001/REC-SVG-20010904/DTD/svg10.dtd">
<svg version="1.0" xmlns="http://www.w3.org/2000/svg"
 width="512.000000pt" height="512.000000pt" viewBox="0 0 512.000000 512.000000"
 preserveAspectRatio="xMidYMid meet">
<metadata>
Created by potrace 1.14, written by Peter Selinger 2001-2017
</metadata>
<g transform="translate(0.000000,512.000000) scale(0.100000,-0.100000)"
fill="#000000" stroke="none">
<path d="M3630 4410 c-25 -5 -61 -11 -80 -14 -125 -23 -324 -96 -505 -187
-120 -60 -399 -229 -391 -236 2 -2 19 4 37 15 37 20 225 102 249 108 8 2 48
15 88 28 275 93 528 77 652 -43 132 -127 150 -332 55 -618 -36 -109 -100 -258
-122 -284 -7 -8 -13 -19 -13 -24 0 -16 -198 -335 -220 -355 -3 -3 -23 -28 -44
-56 l-38 -51 -133 -1 -132 -1 1 389 1 390 -380 0 -380 0 0 467 0 467 -595 1
c-327 1 -600 0 -605 -2 -7 -2 -10 -271 -10 -791 l0 -787 -90 -91 c-121 -122
-243 -255 -310 -339 -22 -27 -43 -52 -46 -55 -12 -10 -128 -168 -181 -245
-270 -395 -405 -792 -366 -1076 11 -83 14 -99 27 -131 6 -16 9 -28 6 -28 -7 0
46 -102 77 -148 96 -141 277 -252 488 -299 46 -10 691 -10 754 0 293 48 683
169 1036 323 232 101 812 419 886 485 11 11 23 19 27 19 7 0 106 67 227 154
175 124 405 309 550 441 67 60 351 345 400 400 169 190 295 357 406 535 50 79
114 197 114 209 0 35 -44 3 -181 -133 -161 -158 -384 -357 -489 -436 -18 -14
-38 -30 -44 -35 -46 -43 -284 -217 -456 -334 l-105 -71 -3 360 -2 360 -33 1
c-17 1 -44 0 -59 -1 -16 -1 -28 1 -28 4 0 3 32 45 71 93 86 107 241 338 303
452 83 152 170 362 191 466 80 385 -10 603 -284 692 -52 16 -252 24 -321 13z
m-1509 -168 c1 -4 2 -595 3 -1313 l1 -1307 -67 -38 c-37 -20 -66 -39 -65 -41
2 -2 26 4 53 12 85 26 80 38 79 -172 l0 -187 -30 -12 c-17 -7 -43 -14 -60 -17
-16 -3 -59 -12 -95 -21 -36 -8 -94 -20 -130 -25 -36 -6 -82 -13 -102 -16 l-38
-6 0 1574 0 1575 225 0 c124 1 226 -2 226 -6z m759 -921 c3 -1 4 -247 3 -548
l-2 -548 -69 -65 c-76 -72 -185 -168 -213 -188 -18 -13 -19 6 -19 667 0 444 3
680 10 683 8 2 275 2 290 -1z m-1815 -1416 c0 -432 0 -785 -1 -785 0 0 -26 9
-58 20 -264 90 -402 291 -390 567 2 48 9 113 16 143 6 30 12 60 14 65 24 114
153 389 260 555 57 88 151 220 157 220 1 0 2 -353 2 -785z m2573 324 c1 -350
0 -361 -18 -366 -11 -3 -20 -9 -20 -14 0 -5 -5 -9 -11 -9 -5 0 -27 -11 -47
-25 -20 -14 -41 -25 -47 -25 -7 0 -10 120 -9 354 l1 354 43 46 c34 36 50 46
76 46 l32 0 0 -361z m-757 -510 c-1 -134 -4 -246 -8 -250 -8 -8 -135 -64 -235
-104 l-58 -24 0 220 0 219 46 28 c25 15 91 57 147 94 56 37 103 65 105 63 2
-1 3 -112 3 -246z m247 -123 c2 -7 -82 -56 -95 -56 -5 0 -4 56 1 61 8 7 91 3
94 -5z"/>
</g>
</svg>
